<?xml version="1.0" encoding="UTF-8" standalone="no"?>
<svg
   fill="none"
   height="128"
   viewBox="0 0 128 128"
   width="128"
   version="1.1"
   id="svg9"
   xmlns="http://www.w3.org/2000/svg"
   xmlns:svg="http://www.w3.org/2000/svg">
  <path
     d="M 119.72099,3.5891145 98.587145,19.930706 v -4.936023 c 0,-2.539896 -3.067044,-3.833805 -4.888101,-2.012748 L 74.817557,31.863422 v -6.661235 c 0,-2.539895 -3.067044,-3.833804 -4.888101,-2.012747 L 47.69339,45.425362 v -6.661235 c 0,-2.539752 -3.067043,-3.833661 -4.8881,-2.012748 L 13.812143,65.744526 c -13.08285744,13.082857 -13.08285744,34.360474 0,47.443334 13.082858,13.08285 34.360473,13.08285 47.443331,0 L 90.296543,84.146787 c 1.773134,-1.773134 0.527148,-4.888101 -2.012748,-4.888101 H 81.62256 l 22.23607,-22.236065 c 1.77313,-1.773135 0.52714,-4.888101 -2.01275,-4.888101 H 95.184643 L 114.01821,33.301099 c 1.77313,-1.773134 0.52715,-4.888101 -2.01275,-4.888101 h -4.93602 L 123.36311,7.3270738 c 1.96482,-2.4919729 -1.19807,-5.6548616 -3.64212,-3.7379593 z"
     fill="#d3d3d3"
     id="path1"
     style="stroke-width:4.79226" />
  <g
     fill="#f8312f"
     id="g9"
     transform="matrix(4.7922556,0,0,4.7922556,-15.169022,-11.376764)">
    <path
       d="m 22.0176,10.5229 c 0,0.2762 -0.2239,0.5 -0.5,0.5 -0.2762,0 -0.5,-0.2238 -0.5,-0.5 0,-0.2761 0.2238,-0.5 0.5,-0.5 0.2761,0 0.5,0.2239 0.5,0.5 z"
       id="path2" />
    <path
       d="m 16.0176,21.0229 c 0,2.7615 -2.2386,5 -5,5 -2.76145,0 -5.00002,-2.2385 -5.00002,-5 0,-2.7614 2.23857,-5 5.00002,-5 2.7614,0 5,2.2386 5,5 z"
       id="path3" />
    <path
       d="m 15.5176,13.0229 c 0.2761,0 0.5,-0.2238 0.5,-0.5 0,-0.2761 -0.2239,-0.5 -0.5,-0.5 -0.2762,0 -0.5,0.2239 -0.5,0.5 0,0.2762 0.2238,0.5 0.5,0.5 z"
       id="path4" />
    <path
       d="m 18.0176,19.5229 c 0,0.2762 -0.2239,0.5 -0.5,0.5 -0.2762,0 -0.5,-0.2238 -0.5,-0.5 0,-0.2761 0.2238,-0.5 0.5,-0.5 0.2761,0 0.5,0.2239 0.5,0.5 z"
       id="path5" />
    <path
       d="m 12.5176,15.0229 c 0.2761,0 0.5,-0.2238 0.5,-0.5 0,-0.2761 -0.2239,-0.5 -0.5,-0.5 -0.2762,0 -0.5,0.2239 -0.5,0.5 0,0.2762 0.2238,0.5 0.5,0.5 z"
       id="path6" />
    <path
       d="m 17.0075,16.023 c 0,0.5467 -0.4433,0.99 -0.99,0.99 -0.5468,0 -0.99,-0.4433 -0.99,-0.99 0,-0.5468 0.4432,-0.99 0.99,-0.99 0.5467,0 0.99,0.4432 0.99,0.99 z"
       id="path7" />
    <path
       d="m 19.0176,12.7729 c 0.4142,0 0.75,-0.3357 0.75,-0.75 0,-0.4142 -0.3358,-0.75 -0.75,-0.75 -0.4142,0 -0.75,0.3358 -0.75,0.75 0,0.4143 0.3358,0.75 0.75,0.75 z"
       id="path8" />
    <path
       d="m 19.7676,15.0229 c 0,0.4143 -0.3358,0.75 -0.75,0.75 -0.4142,0 -0.75,-0.3357 -0.75,-0.75 0,-0.4142 0.3358,-0.75 0.75,-0.75 0.4142,0 0.75,0.3358 0.75,0.75 z"
       id="path9" />
  </g>
</svg>
