<svg width="130" height="1202" viewBox="0 0 130 1202" fill="none" xmlns="http://www.w3.org/2000/svg">
<rect width="129" height="1202" fill="white"/>
<path d="M63.6 119.8C35.7 119.8 5.59998 102.3 5.59998 63.9C5.59998 25.5 35.7 8 63.6 8C79.1 8 93.4 13.1 104 22.4C115.5 32.6 121.6 47 121.6 63.9C121.6 80.8 115.5 95.1 104 105.3C93.4 114.6 79 119.8 63.6 119.8Z" fill="url(#paint0_radial_1_341)"/>
<path d="M79.4 46.94C75.21 46.94 71.4 50.48 71.4 56.36C71.4 62.24 75.21 65.78 79.4 65.78C83.59 65.78 87.4 62.24 87.4 56.36C87.4 50.48 83.59 46.94 79.4 46.94Z" fill="#422B0D"/>
<path d="M79.01 50.87C77.98 50.15 76.43 50.38 75.43 51.82C74.43 53.27 74.76 54.79 75.79 55.51C76.82 56.23 78.37 56 79.37 54.56C80.38 53.11 80.04 51.59 79.01 50.87Z" fill="#896024"/>
<path d="M111.49 30.67C116.82 39.27 119.6 49.51 119.6 60.9C119.6 77.8 113.5 92.1 102 102.3C91.4 111.6 77 116.8 61.6 116.8C43.54 116.8 24.56 109.45 13.42 93.86C24.18 111.52 44.41 119.8 63.6 119.8C79 119.8 93.4 114.6 104 105.3C115.5 95.1 121.6 80.8 121.6 63.9C121.6 51.16 118.13 39.84 111.49 30.67Z" fill="#EB8F00"/>
<g opacity="0.9">
<path d="M101.65 88.75C111.282 88.75 119.09 81.5866 119.09 72.75C119.09 63.9134 111.282 56.75 101.65 56.75C92.0182 56.75 84.21 63.9134 84.21 72.75C84.21 81.5866 92.0182 88.75 101.65 88.75Z" fill="url(#paint1_radial_1_341)"/>
</g>
<g opacity="0.9">
<path d="M27.45 91.44C37.0819 91.44 44.89 84.2766 44.89 75.44C44.89 66.6034 37.0819 59.44 27.45 59.44C17.8182 59.44 10.01 66.6034 10.01 75.44C10.01 84.2766 17.8182 91.44 27.45 91.44Z" fill="url(#paint2_radial_1_341)"/>
</g>
<path d="M45.38 38.4C46.73 36.66 49.58 38.19 48.44 40.42C47.58 42.04 46.33 43.68 44.86 45.02C40.96 48.83 35.61 50.87 30.71 50.9C28.21 50.87 28.32 47.66 30.51 47.2C36.08 46.15 41.5 43.1 45.38 38.4Z" fill="#422B0D"/>
<path d="M80.86 39.75C78.75 39.13 79.12 35.93 81.61 36.17C83.43 36.37 85.42 36.94 87.2 37.81C92.17 40.04 96.04 44.26 97.87 48.8C98.76 51.14 95.74 52.21 94.51 50.34C91.49 45.54 86.66 41.62 80.86 39.75Z" fill="#422B0D"/>
<path d="M37.67 54.64C36.16 55.36 35.36 57.04 35.76 58.66C36.8 62.96 40.12 65.46 43.71 65.46C48.05 65.46 52 61.79 52 55.71C52 54.55 51.85 53.47 51.59 52.5C51.03 50.42 48.65 49.42 46.7 50.34L37.67 54.64Z" fill="#422B0D"/>
<path d="M47.3 53.77C46.75 52.93 45.36 52.76 43.89 53.74C42.42 54.72 42.04 56.06 42.59 56.9C43.14 57.74 44.53 57.91 46 56.93C47.47 55.95 47.86 54.6 47.3 53.77Z" fill="#896024"/>
<path d="M36.1 81.62C32.87 80.9 29.37 81.46 26.52 83.14" stroke="#35220B" stroke-width="4.4377" stroke-miterlimit="10" stroke-linecap="round" stroke-linejoin="round"/>
<path d="M31.66 83.73C31.16 87.04 32.73 90.58 35.52 92.44C38.31 94.3 42.18 94.38 45.04 92.65C46.24 91.93 47.25 90.93 48.44 90.2C52.62 87.63 58.09 88.79 62.55 90.83C67.01 92.87 71.21 95.74 76.06 96.52C84.32 97.85 93.09 91.83 94.8 83.64" stroke="#35220B" stroke-width="4.4377" stroke-miterlimit="10" stroke-linecap="round" stroke-linejoin="round"/>
<path d="M99.15 87.51C98 85.06 94.11 82.64 91.4 82.78" stroke="#35220B" stroke-width="4.4377" stroke-miterlimit="10" stroke-linecap="round" stroke-linejoin="round"/>
<path d="M59.2 223.33C57.54 239.77 45.12 250.95 28.65 249.67C12.18 248.39 5.35999 234.49 6.19999 221.33C7.08999 207.25 13.88 200.98 18.2 192.33C24.2 180.33 22.12 171.27 23.36 166.43C23.9 164.32 26.45 163.5 28.1 164.92C37.84 173.27 61.68 198.78 59.2 223.33Z" fill="#4FC3F7"/>
<path d="M118.97 221.21C124.66 231.87 122 246.56 110.88 250.87C94.2099 257.33 83.21 245.33 81.21 225.33C80.45 217.69 75.1 205.87 73.87 202.43C73.34 200.93 74.53 199.41 76.1 199.6C85.33 200.75 110.47 205.3 118.97 221.21Z" fill="#4FC3F7"/>
<path d="M107.28 140.49C120.84 149.92 125.12 168.37 115.71 181.95C109.2 191.33 91.3 193.45 80.2 186.33C68.32 178.71 65.07 170.78 58.2 162.33C51.56 154.17 44 149.59 40.37 146.15C38.79 144.65 39.31 142.02 41.35 141.27C53.38 136.81 87.02 126.4 107.28 140.49Z" fill="#4FC3F7"/>
<path d="M53.42 223.82C53.05 224.93 52.53 226.02 51.69 226.82C50.84 227.63 49.62 228.11 48.49 227.84C46.83 227.45 45.91 225.71 45.33 224.11C43.74 219.73 43.15 215 43.61 210.37C43.87 207.73 44.84 204.28 47.83 203.56C49.83 203.08 51.1 204.64 51.92 206.26C54.44 211.23 55.18 218.57 53.42 223.82Z" fill="#B3E5FC"/>
<path d="M114.92 228.24C114.9 229.12 114.76 230.05 114.16 230.69C113.1 231.84 111.19 231.47 109.8 230.76C106.65 229.16 104.25 226.31 102.71 223.13C101.71 221.04 100.19 217.21 102.43 215.43C103.99 214.19 106.4 214.15 108 215.22C111.99 217.9 115.05 223.47 114.92 228.24Z" fill="#B3E5FC"/>
<path d="M106.97 153.04C104.49 156.96 98.5 155.57 93.62 148.99C91.16 145.69 87.27 144.19 85.1 143.22C81.06 141.41 84.72 138.96 86.57 138.78C91.92 138.27 94.92 138.67 99.77 141.09C103.59 143.01 109.81 148.56 106.97 153.04Z" fill="#B3E5FC"/>
<path d="M72.38 266.81C55.64 278.04 49.13 300.21 45.21 303.21C35.99 310.25 19.21 311.09 8.80998 329.37C-0.460023 345.67 6.62998 359.9 13.84 366.44C21.05 372.98 35.48 367.95 35.48 367.95C35.48 367.95 59.13 354.2 59.13 352.86C59.13 351.52 75.4 327.52 82.95 319.81C90.5 312.1 120.02 297.67 120.02 297.67C120.02 297.67 125.32 274.87 124.05 271.34C122.53 267.14 99.38 248.69 72.38 266.81Z" fill="#F3AE38"/>
<path d="M72.26 320C60.81 335.16 59.94 347.72 45.9 357.58C31.86 367.44 13.85 366.43 13.85 366.43C13.85 366.43 23.54 376.91 41.96 372.61C62.54 367.8 68.79 354.25 75.84 340.7C78.92 334.79 79.54 332.2 81.01 330.72C82.49 329.24 100.35 322.1 107.99 316.92C115.63 311.74 122.94 302.09 124.62 291.17C126.59 278.36 124.03 271.33 124.03 271.33C124.03 271.33 123.3 288.11 112.92 297.94C101.22 309.04 79.36 310.62 72.26 320Z" fill="#D97A08"/>
<path d="M14.87 329.4C12.92 332.53 12.72 334.97 14.43 335.98C16.36 337.13 18.8 334.84 20 332.75C21.2 330.66 22.02 327.75 20.44 326.74C18.67 325.6 16.65 326.55 14.87 329.4Z" fill="#F7C875"/>
<path d="M26.33 321.55C27.8 324.02 30.89 322.82 33.61 320.98C36.33 319.14 38.04 316.87 36.96 315.09C35.88 313.32 32.47 314.39 30.25 315.91C28.04 317.44 24.94 319.21 26.33 321.55Z" fill="#F7C875"/>
<path d="M54.3 303.26C56.42 304.6 58.55 302.31 60.32 299.33C62.09 296.36 63.21 293.12 61.13 291.93C59.18 290.81 57.14 292.26 55.03 296.15C52.63 300.58 52.6 302.18 54.3 303.26Z" fill="#F7C875"/>
<path d="M16.7 358.14C17.36 360.16 19.97 359.87 21.74 359.32C24.64 358.42 25.75 356.64 25.38 355.15C25.01 353.66 22.51 353.13 20.06 354.17C18.49 354.84 16.05 356.14 16.7 358.14Z" fill="#D97A08"/>
<path d="M30.18 353.76C31.51 355.51 33.79 355.14 37.28 352.46C39.99 350.38 41.06 347.57 39.86 346.12C38.66 344.67 37.32 345.83 34.4 348C31.69 350.01 29.08 352.32 30.18 353.76Z" fill="#D97A08"/>
<path d="M32.96 341.73C34.1 343.5 36.78 342.81 39.52 340.61C42.07 338.56 43.09 336.47 41.53 334.79C40.04 333.18 37.46 335.48 36.09 336.56C34.42 337.88 31.6 339.62 32.96 341.73Z" fill="#D97A08"/>
<path d="M46.01 339.15C43.57 341.46 42.03 343.57 43.92 345.19C45.81 346.81 48.62 344.12 49.78 343.02C50.94 341.91 53.48 339.19 51.79 337.33C50.11 335.48 47.17 338.05 46.01 339.15Z" fill="#D97A08"/>
<path d="M53.41 320.89C51.8 322.87 49.41 325.32 50.55 326.9C51.74 328.54 54.68 327.96 57.24 324.68C58.85 322.61 59.41 319.7 58.02 318.5C56.64 317.3 54.83 319.15 53.41 320.89Z" fill="#D97A08"/>
<path d="M70.7 308.26C71.69 310.54 75.21 309.36 77.81 307.84C80.41 306.31 82.52 304.3 81.61 302.52C80.78 300.89 77.87 300.99 74.82 302.81C71.76 304.62 69.85 306.31 70.7 308.26Z" fill="#D97A08"/>
<path d="M91.83 299.92C92.9 301.77 95.42 301.14 98.26 299.02C101.05 296.94 102.31 294.96 101.05 293.17C99.78 291.38 97.53 292.98 94.95 294.83C92.44 296.61 90.79 298.14 91.83 299.92Z" fill="#D97A08"/>
<path d="M104.52 293.2C105.96 294.56 108.19 293.31 110.4 290.97C112.72 288.52 113.29 286.57 112.18 285.37C111.08 284.17 109.08 284.97 106.48 287.7C104.07 290.23 103.28 292.03 104.52 293.2Z" fill="#D97A08"/>
<path d="M104.99 277.02C102.96 279.63 100.75 281.68 102.66 283.36C104.09 284.62 106.91 283.04 108.86 280.45C110.61 278.12 111.12 274.71 109.48 273.99C107.84 273.28 106.87 274.61 104.99 277.02Z" fill="#D97A08"/>
<path d="M114.94 276.63C114.16 279.39 112.53 281.08 114.14 282.54C116.04 284.28 118.68 282.01 119.62 277.9C120.48 274.11 119.75 272.32 117.88 272.39C116.01 272.45 115.58 274.39 114.94 276.63Z" fill="#D97A08"/>
<path d="M101.98 950.25C101.98 950.25 108.35 945.3 111.89 941.76C116.25 937.4 117.55 932.83 116.03 932.29C114.51 931.75 108.62 932.83 108.62 932.83L90.98 941.43L86.51 948.07L101.98 950.25Z" fill="#69A246"/>
<path d="M28.36 947.96C28.36 947.96 24.66 946.65 20.52 942.19C16.48 937.83 15.29 934.89 15.84 933.26C16.38 931.63 36.53 937.62 36.53 937.62L49.93 943.61L53.41 950.8L28.36 947.96Z" fill="#69A246"/>
<path d="M67.02 948.29C67.02 948.29 71.27 939.8 78.13 936.2C84.99 932.6 92.18 931.84 103.18 931.41C114.18 930.98 116.03 932.28 116.03 932.28C116.03 932.28 107.75 936.2 99.8 939.9C91.85 943.6 85.42 948.5 85.42 948.5L68.44 961.36L45.35 944.15C45.35 944.15 37.29 940.12 30.65 937.62C24.01 935.12 15.84 933.26 15.84 933.26C15.84 933.26 17.45 931.2 32.61 931.95C47.86 932.71 53.52 936.52 58.09 939.25C62.66 941.98 67.02 948.29 67.02 948.29Z" fill="#82B032"/>
<path d="M68.22 950.69C70.72 950.47 76.2 942.87 91.17 944.08C106.14 945.28 128.98 962.28 122.83 994.16C119.49 1011.5 110.47 1022.68 93.8 1034.8C82.02 1043.36 70.03 1048.8 64.49 1048.88C59.5 1048.96 52.62 1038.04 52.62 1038.04L68.22 950.69Z" fill="url(#paint3_radial_1_341)"/>
<path d="M68.22 950.69C70.72 950.47 76.2 942.87 91.17 944.08C105.21 945.21 126.16 960.22 123.66 988.36C123.49 990.24 121.57 998.31 117.78 998.71C99.3 1000.69 90.46 978.07 85.7 972.11C76.6 960.74 68.22 950.69 68.22 950.69Z" fill="url(#paint4_radial_1_341)"/>
<path d="M67.53 950.89C70.03 950.67 76.2 942.87 91.17 944.07C102.54 944.98 118.43 955 122.75 973.72C123.76 978.12 117.97 983.16 114.2 983.81C102.68 985.8 88.9 969.07 84.13 963.11C77.66 955.02 72.39 953.25 69.66 952.33C68.56 951.95 67.53 950.89 67.53 950.89Z" fill="url(#paint5_radial_1_341)"/>
<path d="M88.38 992.94L86.19 1015.98L76.66 1037.63L68.71 1047.36C68.71 1047.36 66.44 1048.78 64.5 1048.87C62.55 1048.95 48.05 1044.78 35.14 1036.04C22.23 1027.3 11.98 1016.83 7.53002 1005.06C1.97002 990.36 1.77002 968.11 15.08 955.8C28.39 943.49 41.5 941.7 52.62 944.08C63.74 946.46 67.12 950.24 69.31 952.03C71.5 953.82 80.83 965.14 80.83 965.14L88.18 984.01L88.38 992.94Z" fill="url(#paint6_radial_1_341)"/>
<path d="M56.83 1021.2C32.63 1024.2 11.91 1009.69 7.46 997.92C4.38 989.79 3.02 986.48 4.6 976.68C5.88 968.78 8.85 961.69 15.07 955.8C27.48 944.05 41.64 941.41 53.22 944.09C64.3 946.65 67.11 950.24 69.29 952.03C71.47 953.82 80.81 965.14 80.81 965.14L88.16 984.01C88.18 984.01 89.68 1017.13 56.83 1021.2Z" fill="url(#paint7_radial_1_341)"/>
<path d="M67.91 1047.45C68.34 1047.57 72.49 1045.57 75.1 1042.32C82.11 1033.57 91.01 1021.41 92.59 998.88C94.96 965.08 73.02 952.63 71.69 952.03C70.36 951.44 68.43 951.44 69.91 953.07C71.39 954.7 87.85 973.08 85.62 998.14C83.63 1020.56 74.8 1037.72 71.68 1041.58C68.58 1045.43 66.66 1047.09 67.91 1047.45Z" fill="url(#paint8_radial_1_341)"/>
<path d="M28.31 976.94C28.31 976.94 25.15 984.57 18.79 979.54C15.33 976.8 15.56 969.73 18.93 963.83C23.05 956.59 30.82 951.61 41.19 950.2C50.45 948.94 56.74 951.57 57.89 957.03C59.29 963.63 53.42 963.36 53.42 963.36C36.95 962.84 30.72 971.46 28.31 976.94Z" fill="url(#paint9_radial_1_341)"/>
<path d="M23.62 983.97C22.98 976.74 27.52 968.58 35.11 963.96C42.91 959.21 52.62 958.59 60.1 962.3L23.62 983.97Z" fill="url(#paint10_radial_1_341)"/>
<path d="M28.31 976.94C28.31 976.94 25.15 984.57 18.79 979.54C15.33 976.8 15.56 969.73 18.93 963.83C23.05 956.59 30.82 951.61 41.19 950.2C50.45 948.94 56.74 951.57 57.89 957.03C59.29 963.63 53.42 963.36 53.42 963.36C36.95 962.84 30.72 971.46 28.31 976.94Z" fill="url(#paint11_radial_1_341)"/>
<path d="M62.6 503.8C34.7 503.8 4.59998 486.3 4.59998 447.9C4.59998 409.5 34.7 392 62.6 392C78.1 392 92.4 397.1 103 406.4C114.5 416.6 120.6 431 120.6 447.9C120.6 464.8 114.5 479.1 103 489.3C92.4 498.6 78 503.8 62.6 503.8Z" fill="url(#paint12_radial_1_341)"/>
<path d="M62.6 503.8C34.7 503.8 4.59998 486.3 4.59998 447.9C4.59998 409.5 34.7 392 62.6 392C78.1 392 92.4 397.1 103 406.4C114.5 416.6 120.6 431 120.6 447.9C120.6 464.8 114.5 479.1 103 489.3C92.4 498.6 78 503.8 62.6 503.8Z" fill="url(#paint13_radial_1_341)"/>
<path d="M62.6 503.8C34.7 503.8 4.59998 486.3 4.59998 447.9C4.59998 409.5 34.7 392 62.6 392C78.1 392 92.4 397.1 103 406.4C114.5 416.6 120.6 431 120.6 447.9C120.6 464.8 114.5 479.1 103 489.3C92.4 498.6 78 503.8 62.6 503.8Z" fill="url(#paint14_linear_1_341)"/>
<path d="M110.49 414.67C115.82 423.27 118.6 433.51 118.6 444.9C118.6 461.8 112.5 476.1 101 486.3C90.4 495.6 76 500.8 60.6 500.8C42.54 500.8 23.56 493.45 12.42 477.86C23.18 495.52 43.41 503.8 62.6 503.8C78 503.8 92.4 498.6 103 489.3C114.5 479.1 120.6 464.8 120.6 447.9C120.6 435.16 117.13 423.84 110.49 414.67Z" fill="#D84213"/>
<path d="M26.25 467.66C35.915 467.66 43.75 459.825 43.75 450.16C43.75 440.495 35.915 432.66 26.25 432.66C16.585 432.66 8.75 440.495 8.75 450.16C8.75 459.825 16.585 467.66 26.25 467.66Z" fill="url(#paint15_radial_1_341)"/>
<path d="M99.75 467.66C109.415 467.66 117.25 459.825 117.25 450.16C117.25 440.495 109.415 432.66 99.75 432.66C90.085 432.66 82.25 440.495 82.25 450.16C82.25 459.825 90.085 467.66 99.75 467.66Z" fill="url(#paint16_radial_1_341)"/>
<path d="M63 488C78.7236 488 91.47 482.695 91.47 476.15C91.47 469.605 78.7236 464.3 63 464.3C47.2765 464.3 34.53 469.605 34.53 476.15C34.53 482.695 47.2765 488 63 488Z" fill="#422B0D"/>
<path d="M64.1 483.32C65.2 483.32 66.1 482.42 66.1 481.32V467.6C64.77 467.57 63.43 467.56 62.1 467.58V481.32C62.1 482.42 63 483.32 64.1 483.32Z" fill="#FF0044"/>
<path opacity="0.3" d="M64.1 483.32C65.2 483.32 66.1 482.42 66.1 481.32V467.6C64.77 467.57 63.43 467.56 62.1 467.58V481.32C62.1 482.42 63 483.32 64.1 483.32Z" fill="#1F0B08"/>
<path d="M18.52 492.04C10.06 492.04 3.54999 483.84 3.54999 476.81C3.54999 471.86 5.75999 466.13 8.88999 458.19C9.27999 457.02 9.79999 455.85 10.32 454.54C11.81 450.82 13.13 446.79 15.13 443.3C16.49 440.92 19.96 440.92 21.27 443.33C23.13 446.76 24.41 450.47 26.34 454.8C31.81 467.04 33.37 471.98 33.37 476.93C33.49 483.83 26.85 492.04 18.52 492.04Z" fill="url(#paint17_radial_1_341)"/>
<path d="M27.67 482.65C25.76 485.61 21.42 485.05 21.42 480.14C21.42 477 22.06 460.89 24.75 463.14C29.14 466.81 30.39 478.47 27.67 482.65Z" fill="#81D4FA"/>
<path d="M26.39 424.77C24.19 425.16 24.08 428.36 26.48 428.47C31.38 428.59 36.69 426.81 40.8 423.02C42.3 421.73 43.61 420.13 44.52 418.53C45.73 416.33 42.93 414.82 41.53 416.42L41.43 416.52C37.4 421.01 31.89 423.89 26.39 424.77Z" fill="#422B0D"/>
<path d="M85.12 416.52L85.02 416.42C83.61 414.83 80.82 416.34 82.03 418.53C82.94 420.13 84.24 421.72 85.75 423.02C89.86 426.8 95.17 428.59 100.07 428.47C102.47 428.36 102.36 425.16 100.16 424.77C94.65 423.89 89.14 421.01 85.12 416.52Z" fill="#422B0D"/>
<path d="M66.1 470.86V481.32C66.1 482.42 65.2 483.32 64.1 483.32C63 483.32 62.1 482.42 62.1 481.32V470.87C54.65 471.09 48.69 472.39 45.25 473.35V485.94C45.25 495.45 52.96 503.15 62.46 503.15H65.74C75.25 503.15 82.95 495.44 82.95 485.94V473.35C76.97 471.69 71.26 470.99 66.1 470.86Z" fill="#FF4081"/>
<path d="M66.1 467.6V470.86C71.26 470.99 76.97 471.68 82.95 473.34V471.6C79.55 469.5 71.95 467.75 66.1 467.6Z" fill="#FF4081"/>
<path opacity="0.3" d="M66.1 467.6V470.86C71.26 470.99 76.97 471.68 82.95 473.34V471.6C79.55 469.5 71.95 467.75 66.1 467.6Z" fill="#AB3F2E"/>
<path d="M62.1 467.58C56.22 467.68 49.93 468.57 45.25 471.55V473.35C48.7 472.39 54.66 471.09 62.1 470.87V467.58Z" fill="#FF4081"/>
<path opacity="0.3" d="M62.1 467.58C56.22 467.68 49.93 468.57 45.25 471.55V473.35C48.7 472.39 54.66 471.09 62.1 470.87V467.58Z" fill="#AB3F2E"/>
<path d="M111.62 444.56C104.14 444.56 98.38 437.31 98.38 431.09C98.38 426.72 100.34 421.65 103.1 414.63C103.45 413.59 103.91 412.56 104.37 411.41C105.69 408.12 106.85 404.55 108.62 401.47C109.83 399.36 112.89 399.37 114.05 401.5C115.7 404.53 116.82 407.81 118.53 411.64C123.36 422.46 124.75 426.83 124.75 431.21C124.86 437.31 118.99 444.56 111.62 444.56Z" fill="url(#paint18_radial_1_341)"/>
<path d="M119.72 436.26C118.03 438.87 114.19 438.38 114.19 434.04C114.19 431.27 114.75 417.02 117.14 419.01C121.02 422.25 122.12 432.57 119.72 436.26Z" fill="#81D4FA"/>
<path d="M43.04 430.94C38.85 430.94 35.04 434.48 35.04 440.36C35.04 446.24 38.85 449.78 43.04 449.78C47.23 449.78 51.04 446.24 51.04 440.36C51.04 434.48 47.24 430.94 43.04 430.94Z" fill="#422B0D"/>
<path d="M42.65 434.87C41.62 434.15 40.07 434.38 39.07 435.82C38.07 437.27 38.4 438.79 39.43 439.51C40.46 440.23 42.01 440 43.01 438.56C44.01 437.12 43.69 435.59 42.65 434.87Z" fill="#896024"/>
<path d="M81.4 430.94C77.21 430.94 73.4 434.48 73.4 440.36C73.4 446.24 77.21 449.78 81.4 449.78C85.59 449.78 89.4 446.24 89.4 440.36C89.4 434.48 85.59 430.94 81.4 430.94Z" fill="#422B0D"/>
<path d="M81.01 434.87C79.98 434.15 78.43 434.38 77.43 435.82C76.43 437.27 76.76 438.79 77.79 439.51C78.82 440.23 80.37 440 81.37 438.56C82.38 437.11 82.04 435.59 81.01 434.87Z" fill="#896024"/>
<path d="M20.03 1092.81L9.22 1099.96C9.22 1099.96 7.67 1103 9.77 1113.29C11.87 1123.58 21.35 1143.94 40.44 1163.26C56.91 1179.92 76.14 1188.04 93.05 1188.91C109.96 1189.78 118.09 1178.85 118.09 1178.85L20.03 1092.81Z" fill="#8E2F97"/>
<path d="M29.28 1087.58L20.03 1103.54C20.03 1103.54 25.85 1124.73 35.66 1137.92C46.3 1152.22 58.47 1164.64 77.54 1174.33C93.81 1182.6 109.03 1185.74 109.03 1185.74C109.03 1185.74 118.96 1181.77 122.92 1170.76C126.69 1160.28 121.7 1148.79 114.55 1143.21C107.4 1137.63 93.09 1134.18 80.05 1127.25C66.22 1119.9 55.97 1111.31 46.91 1101.55C41.24 1095.45 39.93 1092.85 39.74 1091.75C39.65 1091.23 39.32 1090.79 38.82 1090.63L29.28 1087.58Z" fill="#A057A1"/>
<path d="M22.71 1105.01L21.9 1110.75C21.9 1110.75 23.37 1112.7 25.13 1112.55C26.89 1112.4 29.6 1107.87 30.28 1104.78C31.28 1100.26 30.74 1097.74 30.74 1097.74C30.74 1097.74 34.26 1099.58 39.54 1098.81C44.82 1098.04 47.5 1095.06 48.19 1093.53C48.88 1092 48.73 1090.31 47.96 1089.93C47.19 1089.55 43.44 1091.23 43.44 1091.23L31.5 1090.77L20.17 1094.06L22.71 1105.01Z" fill="#BDCF46"/>
<path d="M2.99998 1113.41C2.99998 1113.41 1.40998 1114.01 1.88998 1115.77C2.22998 1116.99 5.14998 1118.92 9.03998 1116.97C12.93 1115.02 15.41 1109.85 16.38 1107.4C17.98 1103.34 18.68 1100.55 18.68 1100.55L13.28 1097.35L8.47998 1108.9C8.47998 1108.9 6.31998 1112.55 2.99998 1113.41Z" fill="#BDCF46"/>
<path d="M11.01 1087.2C11.01 1087.2 7.76997 1081.87 7.40997 1078.69C7.10997 1075.99 8.36997 1074.32 9.01997 1073.49C10.02 1072.21 12.11 1071.38 13.48 1072.11C15.18 1073.01 15.16 1074.73 16.27 1076.96C17.38 1079.19 19.29 1082.55 19.29 1082.55C19.29 1082.55 23.13 1081.33 28.7 1083.26C34.27 1085.19 36.73 1087.7 40.15 1088.67C43.57 1089.64 47.75 1088.36 47.97 1089.94C48.19 1091.52 42.69 1094.78 37.93 1095C33.17 1095.22 30.2 1092.55 28.56 1093.59C26.92 1094.63 28.2 1100.97 26.73 1105.5C25.56 1109.1 22.67 1110.91 21.92 1110.81C21.79 1110.79 18.44 1105.64 17.78 1104.23C17.11 1102.82 15.85 1099.25 13.99 1102C12.13 1104.75 12.52 1108.91 8.85997 1112.11C6.14997 1114.48 3.47997 1114.27 2.87997 1113.62C2.68997 1113.41 5.25997 1111.62 5.25997 1109.46C5.25997 1107.3 4.63997 1099.09 5.75997 1095.07C7.23997 1089.72 11.01 1087.2 11.01 1087.2Z" fill="#6F9823"/>
<path d="M8.88001 514.38C18.11 523.77 30.24 531.38 41.77 531.05C42.87 531.02 43.79 531.89 43.82 532.99C43.83 533.31 43.76 533.62 43.63 533.91C38.56 544.32 27.41 554.72 17.23 553.3C16.75 553.24 16.31 552.99 16 552.62C9.36001 544.68 4.70001 528.81 5.45001 515.62C5.53001 514.52 6.50001 513.69 7.60001 513.78C8.08001 513.82 8.54001 514.03 8.88001 514.38Z" fill="#792D85"/>
<path d="M119.07 514.63C109.84 524 97.71 531.6 86.18 531.3C85.08 531.27 84.16 532.14 84.13 533.24C84.12 533.56 84.19 533.87 84.32 534.16C89.39 544.57 100.54 554.97 110.72 553.55C111.19 553.48 111.63 553.24 111.93 552.87C118.56 544.93 123.22 529.06 122.48 515.87C122.39 514.77 121.42 513.95 120.32 514.05C119.85 514.09 119.4 514.29 119.07 514.63Z" fill="#792D85"/>
<path d="M63.6 625.8C38.36 625.8 11.13 609.97 11.13 575.23C11.13 540.49 38.36 524.65 63.6 524.65C77.6 524.65 90.6 529.27 100.15 537.65C110.55 546.88 116.07 559.91 116.07 575.2C116.07 590.49 110.55 603.42 100.15 612.65C90.56 621.1 77.53 625.8 63.6 625.8Z" fill="url(#paint19_radial_1_341)"/>
<path d="M107.22 545.33C112.17 553.56 114.71 563.02 114.54 572.62C114.54 587.88 109.03 600.79 98.65 610C89.08 618.4 76.08 623.09 62.17 623.09C45.87 623.09 28.74 616.46 18.68 602.38C28.39 618.38 46.68 625.8 63.98 625.8C77.88 625.8 90.88 621.11 100.45 612.71C110.84 603.5 116.34 590.59 116.34 575.33C116.34 563.83 113.21 553.61 107.22 545.33Z" fill="#792D85"/>
<path d="M81.27 594.54C82.48 594.52 83.59 595.18 84.17 596.24C84.87 597.74 84.69 599.5 83.7 600.82C81.48 604.19 74.18 609.54 64 609.54C53.82 609.54 46.52 604.19 44.31 600.82C43.32 599.5 43.14 597.74 43.84 596.25C44.41 595.18 45.53 594.52 46.74 594.54C47.15 594.54 47.56 594.6 47.95 594.73C53.15 596.3 58.56 597.08 64 597.05C69.42 597.08 74.81 596.3 80 594.73C80.39 594.6 80.8 594.54 81.21 594.54H81.27Z" fill="#422B0D"/>
<path d="M58.14 575.82C55.9 573 46.67 567.58 43.34 566C42.1 565.43 40.81 564.97 39.49 564.63C39.25 564.56 38.99 564.53 38.74 564.53C37.41 564.56 36.27 565.51 36 566.82C35.69 568.18 36.39 569.58 37.67 570.14C39.24 570.91 41.98 572.37 44.82 573.98C42.45 575.39 41 577.95 41 580.71V582.17C41 586.31 44.36 589.67 48.5 589.67C52.64 589.67 56 586.31 56 582.17V580.71C56 580.65 56 580.6 56 580.54C57.07 580.47 58.03 579.83 58.5 578.87C58.99 577.87 58.85 576.68 58.14 575.82Z" fill="#422B0D"/>
<path d="M93.52 566.82C93.24 565.5 92.08 564.56 90.73 564.55C90.48 564.55 90.22 564.58 89.98 564.65C88.66 564.98 87.37 565.44 86.13 566C82.8 567.56 73.57 573 71.33 575.8C70.62 576.67 70.5 577.87 71 578.87C71.48 579.84 72.43 580.47 73.51 580.54C73.51 580.6 73.51 580.65 73.51 580.71V582.17C73.51 586.31 76.87 589.67 81.01 589.67C85.15 589.67 88.51 586.31 88.51 582.17V580.71C88.51 577.96 87.06 575.41 84.7 574C87.54 572.39 90.28 570.93 91.85 570.16C93.14 569.6 93.85 568.19 93.52 566.82Z" fill="#422B0D"/>
<path d="M48.12 575.45C46.7 574.77 44.99 575.37 44.3 576.79C43.77 577.9 44.01 579.23 44.9 580.09C46.32 580.77 48.03 580.17 48.72 578.75C49.25 577.64 49.01 576.31 48.12 575.45Z" fill="#896024"/>
<path d="M80.63 575.45C79.21 574.77 77.5 575.37 76.81 576.79C76.28 577.9 76.52 579.23 77.41 580.09C78.83 580.77 80.54 580.17 81.23 578.75C81.76 577.64 81.52 576.31 80.63 575.45Z" fill="#896024"/>
<path d="M79.05 722.15L65.88 719.83C65.88 719.83 65.31 720.29 63.73 722.21C62.15 724.13 60.57 727.67 60.57 727.67L29.05 721.37C29.05 721.37 14.84 730.56 18.43 749.14C21.63 765.67 35.98 769.32 43.87 769.48C60.55 769.82 68.23 757.36 68.23 757.36C68.23 757.36 84.47 769.52 100.12 759.05C116.12 748.35 110.3 727.42 106.58 724.6C103.33 722.15 79.05 722.15 79.05 722.15Z" fill="#AF0C1A"/>
<path d="M44.45 717.13C30.48 717.02 22.97 724.35 22.37 733.69C21.81 742.37 27.67 754.76 43.33 755.77C58.99 756.78 69.13 745.07 67.67 735.38C66.36 726.78 58.76 717.24 44.45 717.13Z" fill="#DC0D27"/>
<path d="M78.59 743.27C78.59 743.27 76.9 736.17 73.63 730.43C70.36 724.68 65.86 719.84 65.86 719.84C65.86 719.84 75.02 710.68 88.65 712.71C102.28 714.74 108.45 727.28 108.45 727.28C108.45 727.28 107.12 738.71 98.53 743.28C86.48 749.69 78.59 743.27 78.59 743.27Z" fill="#DC0D27"/>
<path d="M71.61 719.61C70.19 720.93 71.64 725.82 76.03 728.75C80.42 731.68 84.9 732.45 86.71 729.3C88.51 726.15 86.15 723.86 83.33 722.76C81.49 722.04 79.8 722.21 77.66 720.52C75.52 718.83 73.2 718.12 71.61 719.61Z" fill="#FF605F"/>
<path d="M89.32 723.09C88.54 724.97 91.29 727.12 93.35 726.09C95.41 725.06 95.41 722.49 92.75 721.72C90.47 721.06 89.74 722.07 89.32 723.09Z" fill="#FF605F"/>
<path d="M41.4 739.89C42.62 743.03 47.06 741.18 49.54 739.72C52.03 738.26 52.88 736.29 52.11 734.41C51.34 732.53 47.91 732.18 45 733.64C42.64 734.82 40.2 736.81 41.4 739.89Z" fill="#FF605F"/>
<path d="M30.77 722.24C26.9 724.53 26.66 728.78 27.26 730.13C28.8 733.64 30.6 733.39 31.72 735.19C32.83 736.99 34.54 740.52 36.95 740.16C40.38 739.65 40.12 735.19 39.01 732.36C38.18 730.25 37.21 728.16 37.04 725.5C36.86 722.84 36.86 718.64 30.77 722.24Z" fill="#FF605F"/>
<path d="M15.17 663.6C13.88 666.95 16.2 669.39 18.68 670.63C21.39 671.98 24.35 671.98 24.35 671.98C24.35 671.98 32.86 682.11 36.78 694.54C40.44 706.14 41.74 719.78 41.51 722.1C41.24 724.8 41.1 727.37 41.78 728.32C43.12 730.2 46.51 729.81 47.18 728.46C48.13 726.57 47.04 722.24 47.04 722.24C47.04 722.24 46.63 706.57 42.72 694.14C38.81 681.71 33.8 674.55 33.8 674.55C33.8 674.55 50.77 679.17 61.77 689.28C78.4 704.54 80.16 713.56 80.16 713.56C80.16 713.56 80.25 718.05 81.33 719.4C82.41 720.75 87.35 719.94 87.49 717.91C87.63 715.88 86.22 712.18 86.22 712.18C86.22 712.18 82.06 697.35 64.23 683.87C48.19 671.75 28.55 667.11 28.55 667.11C28.55 667.11 26.54 664.08 23.28 662.38C20.43 660.9 16.38 660.45 15.17 663.6Z" fill="#759937"/>
<path d="M26.81 667.32C26.27 666.1 28.28 659.5 38.28 654.23C48.28 648.96 59.67 647.35 74.37 647.59C90.88 647.86 98.55 650.39 98.86 651.38C99.18 652.4 91.19 657.9 91.19 657.9L64.77 665.7L39.77 668.94L26.81 667.32Z" fill="#366918"/>
<path d="M66.65 672.92C87.66 668.93 98.78 652.82 98.78 651.83C98.78 651.71 97.45 651.97 95.7 652.38C93.94 652.79 78.53 657.14 70.7 659.27C61.78 661.7 50.15 663.85 46.11 664.4C40.16 665.21 27.06 667.37 27.06 667.37C27.06 667.37 42.96 677.42 66.65 672.92Z" fill="#518E30"/>
<path d="M83.13 814.99L64.79 815.17L80.47 806.62L76.76 793.38L87.17 801.28L97.64 793.27L94.89 804.05L112.15 806.03L94.19 813.03L87.03 825.53L83.13 814.99Z" fill="#FFE36C"/>
<path d="M94.27 798.37L93.51 801.33L92.38 805.78L96.94 806.3L103.88 807.09L94.12 810.9L92.8 811.41L92.1 812.64L87.42 820.81L85.5 815.61L84.52 812.96L81.7 813L72.79 813.09L80.03 809.14L82.83 807.61L81.97 804.54L80.3 798.58L84.74 801.95L87.17 803.79L89.59 801.94L94.27 798.37ZM87.16 798.76L74.49 789.15C74.08 788.84 73.51 789.23 73.65 789.72L78.11 805.63L58.67 816.23C58.18 816.5 58.37 817.24 58.93 817.23L81.74 817L86.24 829.17C86.4 829.6 86.98 829.64 87.21 829.25L95.58 814.63L118.4 805.73C118.92 805.53 118.82 804.76 118.27 804.7L97.4 802.32L100.62 789.67C100.75 789.18 100.18 788.8 99.78 789.11L87.16 798.76Z" fill="#FF8F00"/>
<path d="M96.59 829.29C95.32 829.11 88.99 835.42 84.42 831.46L84.41 831.47C81.78 829.34 78.88 827.48 75.69 825.96C53.94 815.59 27.89 824.81 17.51 846.57C7.13998 868.32 16.36 894.37 38.12 904.75C59.87 915.12 85.92 905.9 96.3 884.14C99.67 877.08 100.97 869.57 100.44 862.29C100.4 861.78 100.31 860.65 100.56 859.81C102.27 854.07 108.49 851.21 108.36 850.94C108.23 850.66 97.87 829.47 96.59 829.29Z" fill="#4D4D4D"/>
<path d="M108.608 850.8C111.398 849.194 110.907 843.107 107.511 837.205C104.114 831.304 99.0981 827.821 96.3074 829.427C93.5168 831.033 94.0081 837.12 97.4048 843.021C100.801 848.923 105.817 852.406 108.608 850.8Z" fill="#757575"/>
<path d="M106.108 843.146C107.203 842.514 107.303 840.637 106.331 838.953C105.359 837.269 103.683 836.417 102.588 837.05C101.493 837.682 101.393 839.559 102.365 841.243C103.337 842.927 105.013 843.779 106.108 843.146Z" fill="#212121"/>
<path opacity="0.9" d="M55.9 837.57C58.64 845.35 54.63 849.99 49.44 852.96C46.96 854.38 44.08 855 41.57 856.37C36.69 859.03 33.73 864.16 29.48 867.73C28.42 868.62 27.21 869.44 25.83 869.59C23.99 869.79 22.19 868.71 21.09 867.22C20 865.72 15.53 851.5 31.85 836.95C39.14 830.45 52.9 829.04 55.9 837.57Z" fill="#757575"/>
<path d="M43.86 823.72C47.55 823.84 55.09 823.89 64.63 827.64C67.84 828.9 70.55 830.66 73.46 832.46C75.81 833.91 78.48 835.12 81.23 834.86C82.2 834.77 83.27 834.39 83.65 833.49C83.88 832.93 83.86 832.36 83.66 831.8C83.42 831.14 82.6 830.22 81.34 829.19C79.57 828 77.69 826.91 75.7 825.96C65.34 821.02 54.01 820.53 43.86 823.72Z" fill="url(#paint20_linear_1_341)"/>
<path d="M104.13 832.64C104.08 832.59 104.03 832.53 103.98 832.48C103.97 832.47 103.97 832.46 103.96 832.46C103.73 832.23 103.5 832.01 103.27 831.79C103.24 831.76 103.2 831.73 103.17 831.69C100.64 829.4 98.05 828.43 96.31 829.42C93.52 831.02 94.01 837.11 97.41 843.01C98.14 844.27 98.94 845.42 99.78 846.44C99.68 846.15 95.94 834.92 98.27 831.91C100.26 829.37 103.78 832.34 104.13 832.64Z" fill="url(#paint21_linear_1_341)"/>
<path d="M90.16 859.53C87.74 857.94 85.37 855.78 83.9 850.35C83.71 849.66 83.07 846.23 84.92 845.68C86.52 845.2 87.71 847.83 89.09 850.14C90.59 852.67 93.02 854.86 95.63 856.29C96.39 856.7 99.92 858.29 97.6 860.51C96.07 861.96 91.58 860.47 90.16 859.53Z" fill="#212121"/>
<path d="M102.85 838.44C102.95 838.4 113.1 833.79 112.22 827.1C111.64 822.68 109.92 820.48 100.82 818.32C91.92 816.21 87.57 812.08 87.39 811.9C86.5 811.04 86.47 809.61 87.34 808.71C88.2 807.82 89.62 807.79 90.52 808.65C90.59 808.71 94.29 812.13 101.87 813.93C110.69 816.02 115.66 818.65 116.7 826.5C117.86 835.28 108.18 840.75 105.41 842.2C103.69 843.11 101.71 838.94 102.85 838.44Z" fill="#C69461"/>
<path d="M90.5 808.66C89.61 807.8 88.18 807.83 87.32 808.72C86.46 809.62 86.48 811.04 87.37 811.91C87.5 812.04 89.87 814.28 94.62 816.3L95.57 814.64L99.23 813.21C93.42 811.35 90.56 808.71 90.5 808.66Z" fill="#F6BC41"/>
<defs>
<radialGradient id="paint0_radial_1_341" cx="0" cy="0" r="1" gradientUnits="userSpaceOnUse" gradientTransform="translate(63.6 63.8999) scale(56.9597 56.9597)">
<stop offset="0.5" stop-color="#FDE030"/>
<stop offset="0.9188" stop-color="#F7C02B"/>
<stop offset="1" stop-color="#F4A223"/>
</radialGradient>
<radialGradient id="paint1_radial_1_341" cx="0" cy="0" r="1" gradientUnits="userSpaceOnUse" gradientTransform="translate(101.642 72.752) scale(18.9738 16.5909)">
<stop stop-color="#ED7770"/>
<stop offset="0.9" stop-color="#ED7770" stop-opacity="0"/>
</radialGradient>
<radialGradient id="paint2_radial_1_341" cx="0" cy="0" r="1" gradientUnits="userSpaceOnUse" gradientTransform="translate(27.4494 75.4426) scale(18.9738 16.5909)">
<stop stop-color="#ED7770"/>
<stop offset="0.9" stop-color="#ED7770" stop-opacity="0"/>
</radialGradient>
<radialGradient id="paint3_radial_1_341" cx="0" cy="0" r="1" gradientUnits="userSpaceOnUse" gradientTransform="translate(79.0584 942.909) scale(88.8088 88.8088)">
<stop offset="0.7185" stop-color="#FE622B"/>
<stop offset="0.7805" stop-color="#FB582C"/>
<stop offset="0.8861" stop-color="#F23D2F"/>
<stop offset="1" stop-color="#E71932"/>
</radialGradient>
<radialGradient id="paint4_radial_1_341" cx="0" cy="0" r="1" gradientUnits="userSpaceOnUse" gradientTransform="translate(102.963 959.823) rotate(143.814) scale(28.3497 61.7284)">
<stop offset="0.3709" stop-color="#FF9759"/>
<stop offset="0.7473" stop-color="#FF9759" stop-opacity="0"/>
</radialGradient>
<radialGradient id="paint5_radial_1_341" cx="0" cy="0" r="1" gradientUnits="userSpaceOnUse" gradientTransform="translate(53.5314 941.482) scale(50.6988 50.6988)">
<stop offset="0.4809" stop-color="#FF9759"/>
<stop offset="1" stop-color="#FF9759" stop-opacity="0"/>
</radialGradient>
<radialGradient id="paint6_radial_1_341" cx="0" cy="0" r="1" gradientUnits="userSpaceOnUse" gradientTransform="translate(55.211 955.084) scale(76.8712 76.8712)">
<stop offset="0.7006" stop-color="#FE622B"/>
<stop offset="0.7658" stop-color="#FD5D2B"/>
<stop offset="0.8396" stop-color="#F8502D"/>
<stop offset="0.9175" stop-color="#F1392F"/>
<stop offset="0.9978" stop-color="#E71A32"/>
<stop offset="0.9992" stop-color="#E71932"/>
</radialGradient>
<radialGradient id="paint7_radial_1_341" cx="0" cy="0" r="1" gradientUnits="userSpaceOnUse" gradientTransform="translate(44.681 944.366) rotate(88.9858) scale(73.0793 58.2047)">
<stop offset="0.6381" stop-color="#FF9759"/>
<stop offset="1" stop-color="#FF9759" stop-opacity="0"/>
</radialGradient>
<radialGradient id="paint8_radial_1_341" cx="0" cy="0" r="1" gradientUnits="userSpaceOnUse" gradientTransform="translate(77.9481 943.422) scale(85.7445 85.7445)">
<stop offset="0.4987" stop-color="#F34124"/>
<stop offset="0.9992" stop-color="#D10D22"/>
</radialGradient>
<radialGradient id="paint9_radial_1_341" cx="0" cy="0" r="1" gradientUnits="userSpaceOnUse" gradientTransform="translate(33.4334 961.616) rotate(-28.2103) scale(23.3292 11.8571)">
<stop offset="0.3454" stop-color="#FEBD92"/>
<stop offset="1" stop-color="#FEBD92" stop-opacity="0"/>
</radialGradient>
<radialGradient id="paint10_radial_1_341" cx="0" cy="0" r="1" gradientUnits="userSpaceOnUse" gradientTransform="translate(43.6099 977.034) rotate(-30.8811) scale(22.3788 15.2854)">
<stop offset="0.7993" stop-color="#FF9759"/>
<stop offset="1" stop-color="#FF9759" stop-opacity="0"/>
</radialGradient>
<radialGradient id="paint11_radial_1_341" cx="0" cy="0" r="1" gradientUnits="userSpaceOnUse" gradientTransform="translate(35.5959 965.583) rotate(-29.6646) scale(22.2761 12.9873)">
<stop offset="0.7449" stop-color="#FF9759" stop-opacity="0"/>
<stop offset="0.9737" stop-color="#FF9759"/>
</radialGradient>
<radialGradient id="paint12_radial_1_341" cx="0" cy="0" r="1" gradientUnits="userSpaceOnUse" gradientTransform="translate(62.6 447.9) scale(56.9597 56.9597)">
<stop offset="0.5" stop-color="#FDE030"/>
<stop offset="0.9188" stop-color="#F7C02B"/>
<stop offset="1" stop-color="#F4A223"/>
</radialGradient>
<radialGradient id="paint13_radial_1_341" cx="0" cy="0" r="1" gradientUnits="userSpaceOnUse" gradientTransform="translate(62.6 447.9) scale(56.9597 56.9597)">
<stop offset="0.1228" stop-color="#F4A223"/>
<stop offset="0.3556" stop-color="#F49F22"/>
<stop offset="0.5388" stop-color="#F6951D"/>
<stop offset="0.7052" stop-color="#F88416"/>
<stop offset="0.8605" stop-color="#FB6D0C"/>
<stop offset="1" stop-color="#FF5100"/>
</radialGradient>
<linearGradient id="paint14_linear_1_341" x1="62.6" y1="503.8" x2="62.6" y2="392" gradientUnits="userSpaceOnUse">
<stop stop-color="#F4A223"/>
<stop offset="0.0833" stop-color="#F4A223" stop-opacity="0.9051"/>
<stop offset="0.8772" stop-color="#F4A223" stop-opacity="0"/>
</linearGradient>
<radialGradient id="paint15_radial_1_341" cx="0" cy="0" r="1" gradientUnits="userSpaceOnUse" gradientTransform="translate(26.2506 450.162) scale(19.038 18.0852)">
<stop offset="0.00510817" stop-color="#ED0E00"/>
<stop offset="0.1455" stop-color="#ED1709" stop-opacity="0.8431"/>
<stop offset="0.3791" stop-color="#ED2F23" stop-opacity="0.582"/>
<stop offset="0.6751" stop-color="#ED554C" stop-opacity="0.2513"/>
<stop offset="0.9" stop-color="#ED7770" stop-opacity="0"/>
</radialGradient>
<radialGradient id="paint16_radial_1_341" cx="0" cy="0" r="1" gradientUnits="userSpaceOnUse" gradientTransform="translate(99.7524 450.162) scale(19.038 18.0852)">
<stop offset="0.00510817" stop-color="#ED0E00"/>
<stop offset="0.1455" stop-color="#ED1709" stop-opacity="0.8431"/>
<stop offset="0.3791" stop-color="#ED2F23" stop-opacity="0.582"/>
<stop offset="0.6751" stop-color="#ED554C" stop-opacity="0.2513"/>
<stop offset="0.9" stop-color="#ED7770" stop-opacity="0"/>
</radialGradient>
<radialGradient id="paint17_radial_1_341" cx="0" cy="0" r="1" gradientUnits="userSpaceOnUse" gradientTransform="translate(19.5903 447.941) scale(33.4014 51.4382)">
<stop offset="0.46" stop-color="#4FC3F7"/>
<stop offset="1" stop-color="#1E88E5"/>
</radialGradient>
<radialGradient id="paint18_radial_1_341" cx="0" cy="0" r="1" gradientUnits="userSpaceOnUse" gradientTransform="translate(112.569 405.571) scale(29.5319 45.4791)">
<stop offset="0.46" stop-color="#4FC3F7"/>
<stop offset="1" stop-color="#1E88E5"/>
</radialGradient>
<radialGradient id="paint19_radial_1_341" cx="0" cy="0" r="1" gradientUnits="userSpaceOnUse" gradientTransform="translate(63.6 575.225) scale(51.5312 51.5312)">
<stop stop-color="#FF00FF"/>
<stop offset="0.86" stop-color="#DF0BE2"/>
<stop offset="1" stop-color="#792D85"/>
</radialGradient>
<linearGradient id="paint20_linear_1_341" x1="44.079" y1="819.552" x2="85.8122" y2="833.063" gradientUnits="userSpaceOnUse">
<stop stop-color="#FFF9C4" stop-opacity="0.1"/>
<stop offset="0.00151662" stop-color="#FFF9C4" stop-opacity="0.1007"/>
<stop offset="0.3781" stop-color="#FFFCA6" stop-opacity="0.2626"/>
<stop offset="0.7007" stop-color="#FFFE94" stop-opacity="0.4014"/>
<stop offset="0.93" stop-color="#FFFF8D" stop-opacity="0.5"/>
</linearGradient>
<linearGradient id="paint21_linear_1_341" x1="104.029" y1="842.302" x2="93.1394" y2="827.935" gradientUnits="userSpaceOnUse">
<stop offset="0.1096" stop-color="#FFF9C4" stop-opacity="0"/>
<stop offset="1" stop-color="#FFFF8D"/>
</linearGradient>
</defs>
</svg>
